<?xml version="1.0" encoding="utf-8"?>
<!-- Generator: Adobe Illustrator 17.0.0, SVG Export Plug-In . SVG Version: 6.00 Build 0)  -->
<!DOCTYPE svg PUBLIC "-//W3C//DTD SVG 1.1//EN" "http://www.w3.org/Graphics/SVG/1.1/DTD/svg11.dtd">
<svg version="1.1" xmlns="http://www.w3.org/2000/svg" xmlns:xlink="http://www.w3.org/1999/xlink" x="0px" y="0px" width="24px"
	 height="24px" viewBox="0 0 24 24" enable-background="new 0 0 24 24" xml:space="preserve">
<g id="Layer_1">
</g>
<g id="Layer_2">
	<g>
		<path fill="#E91E63" d="M11.983,23.966C5.375,23.966,0,18.59,0,11.983S5.375,0,11.983,0s11.983,5.375,11.983,11.983
			S18.59,23.966,11.983,23.966z M11.983,1.71C6.318,1.71,1.71,6.318,1.71,11.983s4.608,10.273,10.273,10.273
			s10.273-4.608,10.273-10.273S17.647,1.71,11.983,1.71z"/>
		<g>
			<path fill="#E91E63" d="M12.22,17.35c-1.848,0-3.502-1.032-4.315-2.693c-0.208-0.424-0.032-0.936,0.392-1.144
				c0.424-0.207,0.936-0.033,1.144,0.392c0.524,1.07,1.588,1.735,2.779,1.735c1.129,0,2.168-0.616,2.712-1.607
				c0.227-0.414,0.747-0.565,1.161-0.339c0.414,0.227,0.566,0.747,0.339,1.161C15.588,16.394,13.974,17.35,12.22,17.35z"/>
			<circle fill="#E91E63" cx="8.976" cy="9.03" r="1.559"/>
			<circle fill="#E91E63" cx="14.989" cy="9.03" r="1.559"/>
		</g>
	</g>
</g>
</svg>
