<?xml version="1.0" encoding="utf-8"?>
<!-- Generator: Adobe Illustrator 17.0.0, SVG Export Plug-In . SVG Version: 6.00 Build 0)  -->
<!DOCTYPE svg PUBLIC "-//W3C//DTD SVG 1.1//EN" "http://www.w3.org/Graphics/SVG/1.1/DTD/svg11.dtd">
<svg version="1.1" xmlns="http://www.w3.org/2000/svg" xmlns:xlink="http://www.w3.org/1999/xlink" x="0px" y="0px"
	 width="90.475px" height="91.079px" viewBox="0 0 90.475 91.079" enable-background="new 0 0 90.475 91.079" xml:space="preserve">
<g id="Layer_1">
	<rect x="-1363.903" y="-372.772" fill="#757575" width="1275.13" height="951.095"/>
	
		<rect x="-1363.903" y="-372.772" fill="#FFFFFF" stroke="#BDBDBD" stroke-width="0.5" stroke-miterlimit="10" width="1275.13" height="104.688"/>
	<rect x="-679.184" y="35.404" fill="#FFFFFF" width="565" height="513.511"/>
	<g>
		<defs>
			<rect id="SVGID_1_" x="-1337.238" y="-242.54" width="640" height="792.655"/>
		</defs>
		<clipPath id="SVGID_2_">
			<use xlink:href="#SVGID_1_"  overflow="visible"/>
		</clipPath>
		<g clip-path="url(#SVGID_2_)">
			
				<image overflow="visible" width="2880" height="1800" xlink:href="../../../../../Desktop/Screen Shot 2015-10-17 at 14.05.04.png"  transform="matrix(0.5397 0 0 0.5397 -1854.9309 -347.2278)">
			</image>
		</g>
	</g>
	<rect x="-679.184" y="-244.041" fill="#26C6DA" width="565" height="263.992"/>
	<g>
		<text transform="matrix(1 0 0 1 -1275.0125 -290.4558)"><tspan x="0" y="0" fill="#26C6DA" font-family="'AdventPro-Regular'" font-size="46.2454">mood</tspan><tspan x="100.952" y="0" fill="#757575" font-family="'AdventPro-Regular'" font-size="46.2454">maps</tspan></text>
	</g>
</g>
<g id="Layer_2">
	<text transform="matrix(1 0 0 1 -522.1016 -138.8706)" fill="#FFFFFF" font-family="'Roboto-Light'" font-size="30">Enter your location</text>
	<text transform="matrix(1 0 0 1 -510.2417 106.2995)"><tspan x="0" y="0" fill="#757575" font-family="'Roboto-Light'" font-size="30">Select your </tspan><tspan x="154.131" y="0" fill="#757575" font-family="'Roboto-Light'" font-size="30">mood</tspan></text>
	<text transform="matrix(1 0 0 1 -593.256 294.0202)" fill="#757575" font-family="'Roboto-Light'" font-size="18.8194">Happy</text>
	<text transform="matrix(1 0 0 1 -590.8204 452.3575)" fill="#757575" font-family="'Roboto-Light'" font-size="18.8194">Bored</text>
	<text transform="matrix(1 0 0 1 -415.7928 294.0202)" fill="#757575" font-family="'Roboto-Light'" font-size="18.8194">Sad</text>
	<text transform="matrix(1 0 0 1 -423.3426 452.3575)" fill="#757575" font-family="'Roboto-Light'" font-size="18.8194">Crazy</text>
	<text transform="matrix(1 0 0 1 -255.6122 294.0202)" fill="#757575" font-family="'Roboto-Light'" font-size="18.8194">Angry</text>
	<rect x="-639.6" y="-98.785" fill="#FFFFFF" width="482.833" height="53.648"/>
	<g>
		
			<circle fill="none" stroke="#BDBDBD" stroke-width="3.4985" stroke-linecap="round" stroke-linejoin="round" stroke-miterlimit="10" cx="-194.339" cy="-74.392" r="9.971"/>
		
			<line fill="none" stroke="#BDBDBD" stroke-width="3.4985" stroke-linecap="round" stroke-linejoin="round" stroke-miterlimit="10" x1="-187.186" y1="-66.924" x2="-177.129" y2="-58.6"/>
	</g>
	<g>
		
			<circle fill="none" stroke="#E91E63" stroke-width="6.9991" stroke-linecap="round" stroke-linejoin="round" stroke-miterlimit="10" cx="-566.464" cy="221.817" r="45.541"/>
		<g>
			
				<path fill="none" stroke="#E91E63" stroke-width="6.9991" stroke-linecap="round" stroke-linejoin="round" stroke-miterlimit="10" d="
				M-551.323,231.888c-2.744,5.003-8.061,8.396-14.17,8.396c-6.376,0-11.889-3.695-14.514-9.06"/>
			<circle fill="#E91E63" cx="-578.77" cy="209.732" r="6.38"/>
			<circle fill="#E91E63" cx="-554.159" cy="209.732" r="6.38"/>
		</g>
	</g>
	<g>
		
			<circle fill="none" stroke="#E91E63" stroke-width="6.3169" stroke-linecap="round" stroke-linejoin="round" stroke-miterlimit="10" cx="45.103" cy="45.103" r="41.103"/>
		<g>
			
				<path fill="none" stroke="#E91E63" stroke-width="6.3169" stroke-linecap="round" stroke-linejoin="round" stroke-miterlimit="10" d="
				M58.768,54.192c-2.476,4.516-7.275,7.577-12.789,7.577c-5.754,0-10.73-3.335-13.1-8.177"/>
			<circle fill="#E91E63" cx="33.997" cy="34.195" r="5.759"/>
			<circle fill="#E91E63" cx="56.208" cy="34.195" r="5.759"/>
		</g>
	</g>
	<g>
		<g>
			<path fill="#26C6DA" d="M-1301.042-288.536c-26.89-24.22-25.484-40.361-25.484-40.361c0-14.141,11.464-25.605,25.605-25.605
				c14.141,0,25.605,11.464,25.605,25.605c0,0,0.783,18.048-24.773,39.598L-1301.042-288.536z"/>
			<circle fill="#FFFFFF" cx="-1300.921" cy="-328.897" r="16.387"/>
		</g>
		
			<path fill="none" stroke="#757575" stroke-width="2.8352" stroke-linecap="round" stroke-linejoin="round" stroke-miterlimit="10" d="
			M-1295.558-324.167c-1.111,2.027-3.265,3.401-5.74,3.401c-2.583,0-4.816-1.497-5.88-3.67"/>
		<g>
			<circle fill="#757575" cx="-1306.3" cy="-332.529" r="2.558"/>
			<circle fill="#757575" cx="-1296.435" cy="-332.529" r="2.558"/>
		</g>
	</g>
	<g>
		
			<circle fill="none" stroke="#0097A7" stroke-width="6.9991" stroke-linecap="round" stroke-linejoin="round" stroke-miterlimit="10" cx="-399.841" cy="221.817" r="45.541"/>
		<g>
			
				<path fill="none" stroke="#0097A7" stroke-width="6.9991" stroke-linecap="round" stroke-linejoin="round" stroke-miterlimit="10" d="
				M-384.7,231.888c-2.744,5.003-8.061,8.396-14.17,8.396c-6.376,0-11.889-3.695-14.514-9.06"/>
			<circle fill="#0097A7" cx="-412.146" cy="209.732" r="6.38"/>
			<circle fill="#0097A7" cx="-387.536" cy="209.732" r="6.38"/>
		</g>
	</g>
	<g>
		
			<circle fill="none" stroke="#FFAB00" stroke-width="6.9991" stroke-linecap="round" stroke-linejoin="round" stroke-miterlimit="10" cx="-231.449" cy="221.817" r="45.541"/>
		<g>
			
				<path fill="none" stroke="#FFAB00" stroke-width="6.9991" stroke-linecap="round" stroke-linejoin="round" stroke-miterlimit="10" d="
				M-216.308,231.888c-2.744,5.003-8.061,8.396-14.17,8.396c-6.376,0-11.889-3.695-14.514-9.06"/>
			<circle fill="#FFAB00" cx="-243.754" cy="209.732" r="6.38"/>
			<circle fill="#FFAB00" cx="-219.144" cy="209.732" r="6.38"/>
		</g>
	</g>
	<text transform="matrix(1 0 0 1 -260.4501 452.358)" fill="#757575" font-family="'Roboto-Light'" font-size="18.8194">Fearful</text>
	<g>
		
			<circle fill="none" stroke="#8BC34A" stroke-width="6.9991" stroke-linecap="round" stroke-linejoin="round" stroke-miterlimit="10" cx="-231.449" cy="376.078" r="45.541"/>
		<g>
			
				<path fill="none" stroke="#8BC34A" stroke-width="6.9991" stroke-linecap="round" stroke-linejoin="round" stroke-miterlimit="10" d="
				M-216.308,386.149c-2.744,5.003-8.061,8.396-14.17,8.396c-6.376,0-11.889-3.695-14.514-9.06"/>
			<circle fill="#8BC34A" cx="-243.754" cy="363.993" r="6.38"/>
			<circle fill="#8BC34A" cx="-219.144" cy="363.993" r="6.38"/>
		</g>
	</g>
	<g>
		
			<circle fill="none" stroke="#1E88E5" stroke-width="6.9991" stroke-linecap="round" stroke-linejoin="round" stroke-miterlimit="10" cx="-566.464" cy="376.078" r="45.541"/>
		<g>
			
				<path fill="none" stroke="#1E88E5" stroke-width="6.9991" stroke-linecap="round" stroke-linejoin="round" stroke-miterlimit="10" d="
				M-551.323,386.149c-2.744,5.003-8.061,8.396-14.17,8.396c-6.376,0-11.889-3.695-14.514-9.06"/>
			<circle fill="#1E88E5" cx="-578.77" cy="363.993" r="6.38"/>
			<circle fill="#1E88E5" cx="-554.159" cy="363.993" r="6.38"/>
		</g>
	</g>
	<g>
		
			<circle fill="none" stroke="#AB47BC" stroke-width="6.9991" stroke-linecap="round" stroke-linejoin="round" stroke-miterlimit="10" cx="-399.841" cy="376.078" r="45.541"/>
		<g>
			
				<path fill="none" stroke="#AB47BC" stroke-width="6.9991" stroke-linecap="round" stroke-linejoin="round" stroke-miterlimit="10" d="
				M-384.7,386.149c-2.744,5.003-8.061,8.396-14.17,8.396c-6.376,0-11.889-3.695-14.514-9.06"/>
			<circle fill="#AB47BC" cx="-412.146" cy="363.993" r="6.38"/>
			<circle fill="#AB47BC" cx="-387.536" cy="363.993" r="6.38"/>
		</g>
	</g>
</g>
</svg>
