<?xml version="1.0" encoding="utf-8"?>
<!-- Generator: Adobe Illustrator 17.0.0, SVG Export Plug-In . SVG Version: 6.00 Build 0)  -->
<!DOCTYPE svg PUBLIC "-//W3C//DTD SVG 1.1//EN" "http://www.w3.org/Graphics/SVG/1.1/DTD/svg11.dtd">
<svg version="1.1" id="Layer_1" xmlns="http://www.w3.org/2000/svg" xmlns:xlink="http://www.w3.org/1999/xlink" x="0px" y="0px"
	 width="24px" height="24px" viewBox="0 0 24 24" enable-background="new 0 0 24 24" xml:space="preserve">
<g id="Layer_1_1_">
	<rect y="0.01" fill="#FFD600" width="24" height="24"/>
</g>
<path fill="#FFFFFF" d="M11.962,1.808c-5.607,0-10.169,4.562-10.169,10.169s4.562,10.169,10.169,10.169s10.169-4.562,10.169-10.169
	S17.569,1.808,11.962,1.808z"/>
<g>
	<path fill="#FFD600" d="M11.981,23.723c-6.54,0-11.861-5.321-11.861-11.861S5.441,0,11.981,0s11.861,5.321,11.861,11.861
		S18.522,23.723,11.981,23.723z M11.981,1.693c-5.607,0-10.169,4.562-10.169,10.169s4.562,10.169,10.169,10.169
		S22.15,17.469,22.15,11.862S17.588,1.693,11.981,1.693z"/>
	<g>
		<circle fill="#FFD600" cx="7.324" cy="10.158" r="1.493"/>
		<circle fill="#FFD600" cx="16.638" cy="10.158" r="1.493"/>
	</g>
	<path fill="#FFD600" d="M11.966,17.391c-2.293,0-4.495-0.892-6.369-2.581c-0.347-0.313-0.375-0.848-0.062-1.195
		s0.848-0.376,1.195-0.062c1.558,1.404,3.369,2.146,5.236,2.146c1.879,0,3.699-0.751,5.265-2.171
		c0.346-0.314,0.882-0.288,1.196,0.058s0.288,0.882-0.058,1.196C16.487,16.489,14.273,17.391,11.966,17.391z"/>
</g>
</svg>
