<?xml version="1.0" encoding="utf-8"?>
<!-- Generator: Adobe Illustrator 17.0.0, SVG Export Plug-In . SVG Version: 6.00 Build 0)  -->
<!DOCTYPE svg PUBLIC "-//W3C//DTD SVG 1.1//EN" "http://www.w3.org/Graphics/SVG/1.1/DTD/svg11.dtd">
<svg version="1.1" xmlns="http://www.w3.org/2000/svg" xmlns:xlink="http://www.w3.org/1999/xlink" x="0px" y="0px"
	 width="31.029px" height="29.769px" viewBox="0 0 31.029 29.769" enable-background="new 0 0 31.029 29.769" xml:space="preserve">
<g id="Layer_1">
</g>
<g id="Layer_2">
	<g>
		<path fill="#BDBDBD" d="M11.72,23.44C5.257,23.44,0,18.183,0,11.72S5.257,0,11.72,0S23.44,5.257,23.44,11.72
			S18.183,23.44,11.72,23.44z M11.72,3.498c-4.533,0-8.222,3.688-8.222,8.222c0,4.534,3.688,8.223,8.222,8.223
			c4.534,0,8.223-3.688,8.223-8.223C19.942,7.187,16.254,3.498,11.72,3.498z"/>
		<path fill="#BDBDBD" d="M28.93,29.261c-0.393,0-0.788-0.132-1.114-0.401l-10.058-8.324c-0.744-0.616-0.849-1.719-0.232-2.463
			c0.615-0.745,1.719-0.849,2.463-0.232l10.058,8.324c0.744,0.616,0.849,1.719,0.232,2.463
			C29.933,29.045,29.433,29.261,28.93,29.261z"/>
	</g>
</g>
</svg>
