<?xml version="1.0" encoding="utf-8"?>
<!-- Generator: Adobe Illustrator 17.0.0, SVG Export Plug-In . SVG Version: 6.00 Build 0)  -->
<!DOCTYPE svg PUBLIC "-//W3C//DTD SVG 1.1//EN" "http://www.w3.org/Graphics/SVG/1.1/DTD/svg11.dtd">
<svg version="1.1" id="Layer_1" xmlns="http://www.w3.org/2000/svg" xmlns:xlink="http://www.w3.org/1999/xlink" x="0px" y="0px"
	 width="24px" height="24px" viewBox="0 0 24 24" enable-background="new 0 0 24 24" xml:space="preserve">
<g id="Layer_1_1_">
	<rect y="0.01" fill="#8BC249" width="24" height="24"/>
</g>
<path fill="#FFFFFF" d="M11.979,1.674c-5.668,0-10.279,4.611-10.279,10.279c0,5.668,4.611,10.278,10.279,10.278
	s10.279-4.611,10.279-10.278C22.258,6.285,17.647,1.674,11.979,1.674z"/>
<g id="Layer_2">
	<g>
		<path fill="#8BC249" d="M11.953,23.906C5.362,23.906,0,18.544,0,11.953S5.362,0,11.953,0s11.953,5.362,11.953,11.953
			S18.544,23.906,11.953,23.906z M11.953,1.706c-5.65,0-10.247,4.597-10.247,10.247c0,5.65,4.597,10.247,10.247,10.247
			S22.2,17.603,22.2,11.953C22.2,6.302,17.603,1.706,11.953,1.706z"/>
		<g>
			<circle fill="#8BC249" cx="7.26" cy="10.236" r="1.505"/>
			<circle fill="#8BC249" cx="16.646" cy="10.236" r="1.505"/>
		</g>
		<path fill="#8BC249" d="M6.383,17.128c-0.099,0-0.183-0.02-0.273-0.05c-0.447-0.151-0.686-0.634-0.536-1.081
			c0.101-0.3,0.352-0.507,0.642-0.564c0.092-0.039,0.419-0.192,1.252-0.705c1.201-0.739,2.834-0.109,3.701,0.333
			c0.376,0.191,1,0.326,1.837-0.116c0.544-0.288,2.166-1.147,3.678-0.139l1.055,0.745c0.385,0.272,0.477,0.804,0.205,1.188
			c-0.272,0.386-0.804,0.476-1.189,0.205l-1.037-0.732c-0.568-0.379-1.282-0.095-1.903,0.234c-1.573,0.833-2.817,0.441-3.42,0.135
			c-0.878-0.447-1.695-0.608-2.033-0.4C7.155,16.924,6.697,17.128,6.383,17.128z"/>
	</g>
</g>
<g id="Layer_2_1_">
	<g>
		<path fill="#8BC249" d="M11.99,23.979C5.379,23.979,0,18.601,0,11.99S5.379,0,11.99,0s11.989,5.379,11.989,11.99
			S18.601,23.979,11.99,23.979z M11.99,1.711c-5.668,0-10.279,4.611-10.279,10.279c0,5.668,4.611,10.278,10.279,10.278
			s10.279-4.611,10.279-10.278C22.268,6.322,17.657,1.711,11.99,1.711z"/>
		<g>
			<circle fill="#8BC249" cx="7.282" cy="10.268" r="1.509"/>
			<circle fill="#8BC249" cx="16.697" cy="10.268" r="1.509"/>
		</g>
		<path fill="#8BC249" d="M6.403,17.18c-0.099,0-0.184-0.02-0.274-0.05c-0.448-0.151-0.688-0.636-0.537-1.084
			c0.101-0.301,0.354-0.508,0.644-0.566c0.093-0.039,0.42-0.193,1.256-0.708c1.204-0.742,2.842-0.109,3.712,0.334
			c0.377,0.192,1.004,0.327,1.843-0.116c0.546-0.289,2.172-1.15,3.689-0.139l1.059,0.747c0.386,0.272,0.478,0.806,0.206,1.192
			c-0.272,0.387-0.807,0.478-1.192,0.206l-1.04-0.734c-0.57-0.38-1.286-0.095-1.909,0.234c-1.578,0.835-2.826,0.442-3.431,0.135
			c-0.881-0.448-1.7-0.61-2.039-0.401C7.177,16.976,6.717,17.18,6.403,17.18z"/>
	</g>
</g>
</svg>
