<?xml version="1.0" encoding="utf-8"?>
<!-- Generator: Adobe Illustrator 17.0.0, SVG Export Plug-In . SVG Version: 6.00 Build 0)  -->
<!DOCTYPE svg PUBLIC "-//W3C//DTD SVG 1.1//EN" "http://www.w3.org/Graphics/SVG/1.1/DTD/svg11.dtd">
<svg version="1.1" xmlns="http://www.w3.org/2000/svg" xmlns:xlink="http://www.w3.org/1999/xlink" x="0px" y="0px" width="100px"
	 height="100px" viewBox="0 0 100 100" enable-background="new 0 0 100 100" xml:space="preserve">
<g id="Layer_1">
</g>
<g id="Layer_2">
	<g>
		<g>
			<path fill="#FF6D00" d="M49.547,99.094C22.227,99.094,0,76.867,0,49.547S22.227,0,49.547,0s49.546,22.227,49.546,49.547
				S76.867,99.094,49.547,99.094z M49.547,7.071c-23.421,0-42.476,19.054-42.476,42.476s19.055,42.476,42.476,42.476
				s42.476-19.054,42.476-42.476S72.968,7.071,49.547,7.071z"/>
			<circle fill="#FF6D00" cx="69" cy="42.431" r="6.237"/>
			<path fill="#FF6D00" d="M49.483,72.645c-9.575,0-18.776-3.727-26.605-10.779c-1.451-1.307-1.568-3.542-0.261-4.994
				c1.306-1.449,3.544-1.568,4.993-0.261c6.51,5.863,14.073,8.963,21.873,8.963c7.848,0,15.453-3.137,21.991-9.069
				c1.449-1.314,3.683-1.203,4.995,0.241c1.312,1.446,1.203,3.682-0.242,4.994C68.366,68.875,59.118,72.645,49.483,72.645z"/>
			<path fill="#FF6D00" d="M27.531,45.043c-1.548,0-2.968-1.024-3.404-2.589c-0.524-1.881,0.577-3.831,2.458-4.354l8.594-2.393
				c1.875-0.526,3.829,0.575,4.354,2.458c0.524,1.881-0.577,3.831-2.458,4.354l-8.594,2.393C28.164,45,27.845,45.043,27.531,45.043z
				"/>
		</g>
		<path fill="#FF6D00" d="M60.322,70.377c0,7.707-4.824,13.954-10.775,13.954s-10.775-6.247-10.775-13.954H60.322z"/>
	</g>
</g>
</svg>
