<?xml version="1.0" encoding="utf-8"?>
<!-- Generator: Adobe Illustrator 17.0.0, SVG Export Plug-In . SVG Version: 6.00 Build 0)  -->
<!DOCTYPE svg PUBLIC "-//W3C//DTD SVG 1.1//EN" "http://www.w3.org/Graphics/SVG/1.1/DTD/svg11.dtd">
<svg version="1.1" xmlns="http://www.w3.org/2000/svg" xmlns:xlink="http://www.w3.org/1999/xlink" x="0px" y="0px" width="100px"
	 height="100px" viewBox="0 0 100 100" enable-background="new 0 0 100 100" xml:space="preserve">
<g id="Layer_1">
</g>
<g id="Layer_2">
	<g>
		<path fill="#D41F26" d="M49.547,99.094C22.227,99.094,0,76.867,0,49.547S22.227,0,49.547,0s49.547,22.227,49.547,49.547
			S76.867,99.094,49.547,99.094z M49.547,7.071c-23.421,0-42.476,19.055-42.476,42.476c0,23.422,19.055,42.476,42.476,42.476
			s42.476-19.054,42.476-42.476C92.023,26.126,72.968,7.071,49.547,7.071z"/>
		<circle fill="#D41F26" cx="30.094" cy="42.431" r="6.237"/>
		<circle fill="#D41F26" cx="69" cy="42.431" r="6.237"/>
		<path fill="#D41F26" d="M29.444,78.797c-0.165,0-0.333-0.012-0.501-0.036c-1.933-0.275-3.278-2.064-3.004-3.998
			c1.991-14.02,11.743-24.196,23.191-24.196c11.127,0,20.581,9.432,22.989,22.938c0.343,1.922-0.938,3.759-2.86,4.101
			c-1.924,0.353-3.759-0.937-4.102-2.859c-1.768-9.914-8.509-17.109-16.027-17.109c-7.891,0-14.7,7.62-16.19,18.119
			C32.69,77.522,31.177,78.797,29.444,78.797z"/>
		<path fill="#D41F26" d="M40.132,37.998c-0.749,0-1.503-0.237-2.144-0.727L24.89,27.26c-1.551-1.185-1.848-3.404-0.662-4.956
			c1.184-1.551,3.404-1.848,4.956-0.662l13.098,10.012c1.551,1.185,1.848,3.404,0.662,4.956
			C42.249,37.519,41.196,37.998,40.132,37.998z"/>
		<path fill="#D41F26" d="M56.715,37.998c-1.064,0-2.116-0.478-2.812-1.389c-1.186-1.552-0.889-3.771,0.662-4.956l13.098-10.012
			c1.552-1.185,3.772-0.89,4.956,0.662c1.186,1.552,0.889,3.771-0.662,4.956L58.859,37.271
			C58.218,37.761,57.463,37.998,56.715,37.998z"/>
	</g>
</g>
</svg>
