<?xml version="1.0" encoding="utf-8"?>
<!-- Generator: Adobe Illustrator 17.0.0, SVG Export Plug-In . SVG Version: 6.00 Build 0)  -->
<!DOCTYPE svg PUBLIC "-//W3C//DTD SVG 1.1//EN" "http://www.w3.org/Graphics/SVG/1.1/DTD/svg11.dtd">
<svg version="1.1" id="Layer_1" xmlns="http://www.w3.org/2000/svg" xmlns:xlink="http://www.w3.org/1999/xlink" x="0px" y="0px"
	 width="24px" height="24px" viewBox="0 0 24 24" enable-background="new 0 0 24 24" xml:space="preserve">
<g id="Layer_1_1_">
	<rect x="0.057" fill="#D41F26" width="24" height="24"/>
</g>
<g id="Layer_2">
	<path fill="#FFFFFF" d="M11.867,1.647c-5.607,0-10.169,4.562-10.169,10.169S6.26,21.985,11.867,21.985s10.169-4.562,10.169-10.169
		S17.474,1.647,11.867,1.647z"/>
	<g>
		<path fill="#D41F26" d="M11.861,23.723C5.321,23.723,0,18.402,0,11.862S5.321,0,11.861,0s11.861,5.321,11.861,11.861
			S18.401,23.723,11.861,23.723z M11.861,1.693c-5.607,0-10.169,4.562-10.169,10.169s4.562,10.169,10.169,10.169
			S22.03,17.469,22.03,11.862C22.03,6.254,17.468,1.693,11.861,1.693z"/>
		<circle fill="#D41F26" cx="7.204" cy="10.158" r="1.493"/>
		<circle fill="#D41F26" cx="16.518" cy="10.158" r="1.493"/>
		<path fill="#D41F26" d="M7.048,18.864c-0.039,0-0.08-0.003-0.12-0.009c-0.462-0.066-0.784-0.494-0.719-0.957
			c0.477-3.356,2.811-5.792,5.552-5.792c2.664,0,4.927,2.258,5.504,5.491c0.082,0.46-0.224,0.9-0.685,0.982
			c-0.461,0.085-0.9-0.224-0.982-0.684c-0.423-2.373-2.037-4.096-3.837-4.096c-1.889,0-3.519,1.824-3.876,4.338
			C7.825,18.558,7.463,18.864,7.048,18.864z"/>
		<path fill="#D41F26" d="M9.607,9.097c-0.179,0-0.36-0.057-0.513-0.174L5.958,6.526C5.587,6.242,5.516,5.711,5.8,5.34
			c0.283-0.371,0.815-0.442,1.186-0.158l3.136,2.397c0.371,0.284,0.442,0.815,0.158,1.186C10.114,8.982,9.862,9.097,9.607,9.097z"/>
		<path fill="#D41F26" d="M13.577,9.097c-0.255,0-0.507-0.114-0.673-0.333c-0.284-0.371-0.213-0.903,0.158-1.186l3.136-2.397
			c0.372-0.284,0.903-0.213,1.186,0.158c0.284,0.371,0.213,0.903-0.158,1.186L14.09,8.922C13.937,9.04,13.756,9.097,13.577,9.097z"
			/>
	</g>
</g>
</svg>
