<?xml version="1.0" encoding="utf-8"?>
<!-- Generator: Adobe Illustrator 17.0.0, SVG Export Plug-In . SVG Version: 6.00 Build 0)  -->
<!DOCTYPE svg PUBLIC "-//W3C//DTD SVG 1.1//EN" "http://www.w3.org/Graphics/SVG/1.1/DTD/svg11.dtd">
<svg version="1.1" xmlns="http://www.w3.org/2000/svg" xmlns:xlink="http://www.w3.org/1999/xlink" x="0px" y="0px"
	 width="99.843px" height="100.345px" viewBox="0 0 99.843 100.345" enable-background="new 0 0 99.843 100.345"
	 xml:space="preserve">
<g id="Layer_1">
</g>
<g id="Layer_2">
	<g>
		<path fill="#FFD600" d="M49.547,99.094C22.227,99.094,0,76.867,0,49.547S22.227,0,49.547,0s49.547,22.227,49.547,49.547
			S76.867,99.094,49.547,99.094z M49.547,7.071c-23.421,0-42.476,19.055-42.476,42.476c0,23.422,19.055,42.476,42.476,42.476
			s42.476-19.054,42.476-42.476C92.023,26.126,72.968,7.071,49.547,7.071z"/>
		<g>
			<circle fill="#FFD600" cx="30.094" cy="42.431" r="6.237"/>
			<circle fill="#FFD600" cx="69" cy="42.431" r="6.237"/>
		</g>
		<path fill="#FFD600" d="M49.483,72.645c-9.576,0-18.776-3.727-26.605-10.78c-1.45-1.307-1.568-3.542-0.26-4.993
			c1.305-1.45,3.542-1.569,4.993-0.26c6.509,5.863,14.073,8.963,21.872,8.963c7.849,0,15.453-3.137,21.991-9.07
			c1.446-1.312,3.682-1.203,4.995,0.242c1.312,1.446,1.204,3.682-0.242,4.995C68.366,68.875,59.118,72.645,49.483,72.645z"/>
	</g>
</g>
</svg>
