<?xml version="1.0" encoding="utf-8"?>
<!-- Generator: Adobe Illustrator 17.0.0, SVG Export Plug-In . SVG Version: 6.00 Build 0)  -->
<!DOCTYPE svg PUBLIC "-//W3C//DTD SVG 1.1//EN" "http://www.w3.org/Graphics/SVG/1.1/DTD/svg11.dtd">
<svg version="1.1" id="Layer_1" xmlns="http://www.w3.org/2000/svg" xmlns:xlink="http://www.w3.org/1999/xlink" x="0px" y="0px"
	 width="24px" height="24px" viewBox="0 0 24 24" enable-background="new 0 0 24 24" xml:space="preserve">
<g id="Layer_1_1_">
	<rect x="0.029" fill="#9B51A0" width="24" height="24"/>
</g>
<g id="Layer_2">
	<path fill="#FFFFFF" d="M11.84,1.647c-5.607,0-10.169,4.562-10.169,10.169S6.233,21.985,11.84,21.985s10.169-4.562,10.169-10.169
		S17.447,1.647,11.84,1.647z"/>
	<g>
		<path fill="#9B51A0" d="M11.861,23.723C5.321,23.723,0,18.402,0,11.862S5.321,0.001,11.861,0.001s11.861,5.321,11.861,11.861
			S18.401,23.723,11.861,23.723z M11.861,1.693c-5.607,0-10.169,4.562-10.169,10.169s4.562,10.169,10.169,10.169
			s10.168-4.562,10.168-10.17C22.029,6.254,17.468,1.693,11.861,1.693z"/>
		<circle fill="#9B51A0" cx="7.203" cy="10.158" r="1.493"/>
		<circle fill="#9B51A0" cx="16.518" cy="10.158" r="1.493"/>
		<path fill="#9B51A0" d="M6.043,17.391c-0.23,0-0.46-0.093-0.627-0.277c-0.314-0.346-0.288-0.881,0.058-1.196
			c1.882-1.708,4.095-2.611,6.402-2.611c2.292,0,4.495,0.892,6.369,2.581c0.347,0.313,0.375,0.848,0.063,1.196
			c-0.313,0.347-0.848,0.375-1.195,0.062C15.554,15.742,13.744,15,11.877,15c-1.879,0-3.7,0.751-5.265,2.171
			C6.449,17.319,6.246,17.391,6.043,17.391z"/>
	</g>
</g>
</svg>
