<?xml version="1.0" encoding="utf-8"?>
<!-- Generator: Adobe Illustrator 17.0.0, SVG Export Plug-In . SVG Version: 6.00 Build 0)  -->
<!DOCTYPE svg PUBLIC "-//W3C//DTD SVG 1.1//EN" "http://www.w3.org/Graphics/SVG/1.1/DTD/svg11.dtd">
<svg version="1.1" id="Layer_1" xmlns="http://www.w3.org/2000/svg" xmlns:xlink="http://www.w3.org/1999/xlink" x="0px" y="0px"
	 width="24px" height="24px" viewBox="0 0 24 24" enable-background="new 0 0 24 24" xml:space="preserve">
<rect y="0.003" fill="#3D82C4" width="24" height="24"/>
<path fill="#FFFFFF" d="M11.715,1.783c-5.607,0-10.169,4.562-10.169,10.169s4.562,10.169,10.169,10.169s10.169-4.562,10.169-10.169
	S17.322,1.783,11.715,1.783z"/>
<g>
	<path fill="#3D82C4" d="M11.862,23.726c-6.54,0-11.861-5.321-11.861-11.861S5.321,0.003,11.862,0.003s11.861,5.321,11.861,11.861
		S18.402,23.726,11.862,23.726z M11.862,1.696c-5.607,0-10.169,4.562-10.169,10.169s4.562,10.169,10.169,10.169
		s10.169-4.562,10.169-10.169S17.469,1.696,11.862,1.696z"/>
	<g>
		<circle fill="#3D82C4" cx="7.205" cy="10.161" r="1.493"/>
		<circle fill="#3D82C4" cx="16.519" cy="10.161" r="1.493"/>
	</g>
	<path fill="#3D82C4" d="M16.568,16.276H6.743c-0.467,0-0.846-0.379-0.846-0.846s0.379-0.846,0.846-0.846h9.825
		c0.467,0,0.846,0.379,0.846,0.846C17.415,15.897,17.036,16.276,16.568,16.276z"/>
</g>
</svg>
