<?xml version="1.0" encoding="utf-8"?>
<!-- Generator: Adobe Illustrator 17.0.0, SVG Export Plug-In . SVG Version: 6.00 Build 0)  -->
<!DOCTYPE svg PUBLIC "-//W3C//DTD SVG 1.1//EN" "http://www.w3.org/Graphics/SVG/1.1/DTD/svg11.dtd">
<svg version="1.1" xmlns="http://www.w3.org/2000/svg" xmlns:xlink="http://www.w3.org/1999/xlink" x="0px" y="0px" width="100px"
	 height="100px" viewBox="0 0 100 100" enable-background="new 0 0 100 100" xml:space="preserve">
<g id="Layer_1">
</g>
<g id="Layer_2">
	<g>
		<path fill="#8BC249" d="M49.547,99.093C22.227,99.093,0,76.867,0,49.547S22.227,0,49.547,0s49.546,22.227,49.546,49.547
			S76.867,99.093,49.547,99.093z M49.547,7.071c-23.421,0-42.476,19.054-42.476,42.476c0,23.421,19.055,42.475,42.476,42.475
			s42.476-19.054,42.476-42.475C92.023,26.125,72.968,7.071,49.547,7.071z"/>
		<g>
			<circle fill="#8BC249" cx="30.094" cy="42.431" r="6.237"/>
			<circle fill="#8BC249" cx="69" cy="42.431" r="6.237"/>
		</g>
		<path fill="#8BC249" d="M26.46,70.998c-0.41,0-0.76-0.084-1.131-0.208c-1.851-0.624-2.845-2.629-2.221-4.479
			c0.419-1.243,1.461-2.1,2.661-2.339c0.383-0.163,1.735-0.796,5.191-2.924c4.977-3.065,11.746-0.45,15.34,1.379
			c1.559,0.792,4.147,1.352,7.615-0.48c2.255-1.195,8.977-4.753,15.246-0.575l4.375,3.087c1.595,1.126,1.976,3.331,0.85,4.926
			c-1.126,1.598-3.333,1.975-4.928,0.85l-4.298-3.033c-2.356-1.569-5.316-0.393-7.889,0.969c-6.521,3.451-11.679,1.828-14.178,0.559
			c-3.64-1.853-7.026-2.52-8.427-1.659C29.658,70.153,27.76,70.998,26.46,70.998z"/>
	</g>
</g>
</svg>
