<?xml version="1.0" encoding="utf-8"?>
<!-- Generator: Adobe Illustrator 17.0.0, SVG Export Plug-In . SVG Version: 6.00 Build 0)  -->
<!DOCTYPE svg PUBLIC "-//W3C//DTD SVG 1.1//EN" "http://www.w3.org/Graphics/SVG/1.1/DTD/svg11.dtd">
<svg version="1.1" xmlns="http://www.w3.org/2000/svg" xmlns:xlink="http://www.w3.org/1999/xlink" x="0px" y="0px" width="100px"
	 height="100px" viewBox="0 0 100 100" enable-background="new 0 0 100 100" xml:space="preserve">
<g id="Layer_1">
</g>
<g id="Layer_2">
	<g>
		<path fill="#9B51A0" d="M49.547,99.094C22.227,99.094,0,76.867,0,49.547S22.227,0,49.547,0s49.547,22.227,49.547,49.547
			S76.867,99.094,49.547,99.094z M49.547,7.071c-23.421,0-42.476,19.055-42.476,42.476c0,23.422,19.055,42.476,42.476,42.476
			s42.476-19.054,42.476-42.476C92.023,26.126,72.968,7.071,49.547,7.071z"/>
		<circle fill="#9B51A0" cx="30.094" cy="42.431" r="6.237"/>
		<circle fill="#9B51A0" cx="69" cy="42.431" r="6.237"/>
		<path fill="#9B51A0" d="M25.246,72.645c-0.963,0-1.922-0.391-2.619-1.159c-1.312-1.446-1.205-3.682,0.241-4.994
			c7.86-7.134,17.107-10.906,26.743-10.906c9.575,0,18.774,3.727,26.605,10.78c1.451,1.307,1.568,3.542,0.262,4.994
			c-1.307,1.449-3.542,1.568-4.993,0.261c-6.511-5.865-14.074-8.964-21.873-8.964c-7.85,0-15.454,3.137-21.991,9.07
			C26.944,72.343,26.093,72.645,25.246,72.645z"/>
	</g>
</g>
</svg>
