<?xml version="1.0" encoding="utf-8"?>
<!-- Generator: Adobe Illustrator 17.0.0, SVG Export Plug-In . SVG Version: 6.00 Build 0)  -->
<!DOCTYPE svg PUBLIC "-//W3C//DTD SVG 1.1//EN" "http://www.w3.org/Graphics/SVG/1.1/DTD/svg11.dtd">
<svg version="1.1" xmlns="http://www.w3.org/2000/svg" xmlns:xlink="http://www.w3.org/1999/xlink" x="0px" y="0px"
	 width="90.475px" height="91.079px" viewBox="0 0 90.475 91.079" enable-background="new 0 0 90.475 91.079" xml:space="preserve">
<g id="Layer_1">
</g>
<g id="Layer_2">
	<g>
		<path fill="#8BC34A" d="M45.103,89.364c-24.405,0-44.261-19.855-44.261-44.261S20.697,0.842,45.103,0.842
			s44.261,19.855,44.261,44.261S69.508,89.364,45.103,89.364z M45.103,7.159C24.18,7.159,7.158,24.18,7.158,45.103
			S24.18,83.047,45.103,83.047s37.944-17.021,37.944-37.944S66.025,7.159,45.103,7.159z"/>
		<g>
			<path fill="#8BC34A" d="M45.98,64.927c-6.827,0-12.935-3.812-15.938-9.946c-0.767-1.566-0.118-3.459,1.448-4.226
				c1.565-0.766,3.459-0.12,4.226,1.448c1.935,3.952,5.867,6.407,10.264,6.407c4.171,0,8.01-2.275,10.019-5.938
				c0.839-1.53,2.761-2.087,4.288-1.251c1.529,0.839,2.09,2.759,1.251,4.288C58.419,61.396,52.458,64.927,45.98,64.927z"/>
			<circle fill="#8BC34A" cx="33.997" cy="34.195" r="5.759"/>
			<circle fill="#8BC34A" cx="56.208" cy="34.195" r="5.759"/>
		</g>
	</g>
</g>
</svg>
