<?xml version="1.0" encoding="utf-8"?>
<!-- Generator: Adobe Illustrator 17.0.0, SVG Export Plug-In . SVG Version: 6.00 Build 0)  -->
<!DOCTYPE svg PUBLIC "-//W3C//DTD SVG 1.1//EN" "http://www.w3.org/Graphics/SVG/1.1/DTD/svg11.dtd">
<svg version="1.1" id="Layer_1" xmlns="http://www.w3.org/2000/svg" xmlns:xlink="http://www.w3.org/1999/xlink" x="0px" y="0px"
	 width="24px" height="24px" viewBox="0 0 24 24" enable-background="new 0 0 24 24" xml:space="preserve">
<g id="Layer_1_1_">
	<rect x="0.038" fill="#FF6D00" width="24" height="24"/>
</g>
<g id="Layer_2">
	<path fill="#FFFFFF" d="M11.848,1.648c-5.607,0-10.169,4.562-10.169,10.169s4.562,10.169,10.169,10.169s10.169-4.562,10.169-10.169
		S17.455,1.648,11.848,1.648z"/>
	<g>
		<g>
			<path fill="#FF6D00" d="M11.861,23.739C5.321,23.739,0,18.418,0,11.878S5.32,0.016,11.861,0.016s11.861,5.321,11.861,11.861
				S18.401,23.739,11.861,23.739z M11.861,1.709c-5.607,0-10.169,4.562-10.169,10.169s4.562,10.169,10.169,10.169
				S22.03,17.485,22.03,11.878S17.468,1.709,11.861,1.709z"/>
			<circle fill="#FF6D00" cx="16.518" cy="10.174" r="1.493"/>
			<path fill="#FF6D00" d="M11.845,17.407c-2.292,0-4.495-0.892-6.369-2.58c-0.347-0.313-0.375-0.848-0.063-1.196
				c0.313-0.347,0.848-0.375,1.195-0.062c1.558,1.404,3.369,2.146,5.236,2.146c1.879,0,3.699-0.751,5.265-2.171
				c0.347-0.314,0.882-0.288,1.196,0.058c0.314,0.346,0.288,0.881-0.058,1.196C16.366,16.504,14.152,17.407,11.845,17.407z"/>
			<path fill="#FF6D00" d="M6.59,10.799c-0.37,0-0.711-0.245-0.815-0.62C5.65,9.729,5.913,9.262,6.364,9.137l2.057-0.573
				C8.87,8.438,9.338,8.702,9.463,9.152c0.125,0.45-0.138,0.917-0.589,1.042l-2.057,0.573C6.742,10.789,6.665,10.799,6.59,10.799z"
				/>
		</g>
		<path fill="#FF6D00" d="M14.44,16.864c0,1.845-1.155,3.341-2.579,3.341s-2.579-1.496-2.579-3.341H14.44z"/>
	</g>
</g>
</svg>
