<?xml version="1.0" encoding="utf-8"?>
<!-- Generator: Adobe Illustrator 17.0.0, SVG Export Plug-In . SVG Version: 6.00 Build 0)  -->
<!DOCTYPE svg PUBLIC "-//W3C//DTD SVG 1.1//EN" "http://www.w3.org/Graphics/SVG/1.1/DTD/svg11.dtd">
<svg version="1.1" xmlns="http://www.w3.org/2000/svg" xmlns:xlink="http://www.w3.org/1999/xlink" x="0px" y="0px" width="100px"
	 height="100px" viewBox="0 0 100 100" enable-background="new 0 0 100 100" xml:space="preserve">
<g id="Layer_1">
</g>
<g id="Layer_2">
	<g>
		<path fill="#3D82C4" d="M49.546,99.094C22.226,99.094,0,76.867,0,49.547S22.226,0,49.546,0s49.547,22.227,49.547,49.547
			S76.867,99.094,49.546,99.094z M49.546,7.071c-23.421,0-42.476,19.054-42.476,42.476s19.054,42.476,42.476,42.476
			s42.476-19.054,42.476-42.476S72.968,7.071,49.546,7.071z"/>
		<g>
			<circle fill="#3D82C4" cx="30.094" cy="42.431" r="6.237"/>
			<circle fill="#3D82C4" cx="69" cy="42.431" r="6.237"/>
		</g>
		<path fill="#3D82C4" d="M69.208,67.972H28.165c-1.953,0-3.535-1.583-3.535-3.535c0-1.953,1.583-3.535,3.535-3.535h41.043
			c1.953,0,3.535,1.583,3.535,3.535C72.743,66.389,71.161,67.972,69.208,67.972z"/>
	</g>
</g>
</svg>
