<?xml version="1.0" encoding="utf-8"?>
<!-- Generator: Adobe Illustrator 17.0.0, SVG Export Plug-In . SVG Version: 6.00 Build 0)  -->
<!DOCTYPE svg PUBLIC "-//W3C//DTD SVG 1.1//EN" "http://www.w3.org/Graphics/SVG/1.1/DTD/svg11.dtd">
<svg version="1.1" xmlns="http://www.w3.org/2000/svg" xmlns:xlink="http://www.w3.org/1999/xlink" x="0px" y="0px"
	 width="251.884px" height="77.791px" viewBox="0 0 251.884 77.791" enable-background="new 0 0 251.884 77.791"
	 xml:space="preserve">
<g id="Layer_1">
	<rect x="749" y="-32.127" fill="#757575" width="1275.13" height="951.095"/>
	
		<rect x="749" y="-32.127" fill="#FFFFFF" stroke="#BDBDBD" stroke-width="0.5" stroke-miterlimit="10" width="1275.13" height="104.688"/>
	<rect x="1433.719" y="376.049" fill="#FFFFFF" width="565" height="513.511"/>
	<g>
		<defs>
			<rect id="SVGID_1_" x="775.665" y="98.106" width="640" height="792.655"/>
		</defs>
		<clipPath id="SVGID_2_">
			<use xlink:href="#SVGID_1_"  overflow="visible"/>
		</clipPath>
		<g clip-path="url(#SVGID_2_)">
			
				<image overflow="visible" width="2880" height="1800" xlink:href="../../Desktop/Screen Shot 2015-10-17 at 14.05.04.png"  transform="matrix(0.5397 0 0 0.5397 257.9724 -6.5826)">
			</image>
		</g>
	</g>
	<rect x="1602" y="-840.396" fill="#EEEEEE" width="427" height="401.98"/>
	<rect x="1433.719" y="96.604" fill="#26C6DA" width="565" height="263.992"/>
	<g>
		<defs>
			<rect id="SVGID_3_" x="749" y="-840.396" width="841.08" height="693.396"/>
		</defs>
		<clipPath id="SVGID_4_">
			<use xlink:href="#SVGID_3_"  overflow="visible"/>
		</clipPath>
		<g transform="matrix(1 0 0 1 0 6.103516e-05)" clip-path="url(#SVGID_4_)">
			
				<image overflow="visible" width="2880" height="1800" xlink:href="../../Desktop/Screen Shot 2015-10-17 at 14.05.04.png"  transform="matrix(0.4718 0 0 0.4718 231.3074 -1000.0993)">
			</image>
		</g>
	</g>
	<path fill="none" stroke="#616161" stroke-width="0.5" stroke-miterlimit="10" d="M2493.035-330.922c0,2.761-2.239,5-5,5h-359.482
		c-2.761,0-5-2.239-5-5v-30.498c0-2.761,2.239-5,5-5h359.482c2.761,0,5,2.239,5,5V-330.922z"/>
	
		<rect x="1636.578" y="-396.418" fill="none" stroke="#616161" stroke-width="0.5" stroke-miterlimit="10" width="145.493" height="145.493"/>
	<g>
		<text transform="matrix(1 0 0 1 1271.5551 -895.2412)"><tspan x="0" y="0" fill="#26C6DA" font-family="'AdventPro-Regular'" font-size="46.2454">mood</tspan><tspan x="100.952" y="0" fill="#757575" font-family="'AdventPro-Regular'" font-size="46.2454">maps</tspan></text>
	</g>
	<g>
		<g>
			<defs>
				<path id="SVGID_5_" d="M887.384,1271.672c28.529,0,51.656-23.127,51.656-51.656s-23.127-51.656-51.656-51.656
					c-28.529,0-51.656,23.127-51.656,51.656S858.855,1271.672,887.384,1271.672z M887.384,1277.016c31.48,0,57-25.52,57-57
					s-25.52-57-57-57s-57,25.52-57,57S855.904,1277.016,887.384,1277.016z"/>
			</defs>
			<clipPath id="SVGID_6_">
				<use xlink:href="#SVGID_5_"  overflow="visible"/>
			</clipPath>
			<rect x="825.384" y="1158.016" clip-path="url(#SVGID_6_)" fill="#BDBDBD" width="124" height="124"/>
		</g>
	</g>
	<g>
		<g>
			<defs>
				<path id="SVGID_7_" d="M868.783,1230.809c-2.799,2.561-4.555,6.244-4.555,10.336v25.058c-16.902-8.49-28.5-25.984-28.5-46.188
					c0-28.529,23.127-51.656,51.656-51.656c28.529,0,51.656,23.127,51.656,51.656c0,20.203-11.598,37.698-28.5,46.188v-25.058
					c0-4.097-1.755-7.779-4.553-10.338c4.474-4.644,7.225-10.959,7.225-17.917c0-14.265-11.564-25.828-25.828-25.828
					c-14.265,0-25.828,11.564-25.828,25.828C861.556,1219.849,864.308,1226.165,868.783,1230.809z"/>
			</defs>
			<clipPath id="SVGID_8_">
				<use xlink:href="#SVGID_7_"  overflow="visible"/>
			</clipPath>
			<rect x="830.728" y="1163.359" clip-path="url(#SVGID_8_)" fill="#E91E63" width="113.312" height="107.844"/>
		</g>
	</g>
	<g>
		<g>
			<defs>
				<path id="SVGID_9_" d="M887.384,1234.266c11.805,0,21.375-9.57,21.375-21.375s-9.57-21.375-21.375-21.375
					c-11.805,0-21.375,9.57-21.375,21.375S875.579,1234.266,887.384,1234.266z M887.384,1239.609
					c14.756,0,26.719-11.962,26.719-26.719s-11.962-26.719-26.719-26.719s-26.719,11.962-26.719,26.719
					S872.628,1239.609,887.384,1239.609z"/>
			</defs>
			<clipPath id="SVGID_10_">
				<use xlink:href="#SVGID_9_"  overflow="visible"/>
			</clipPath>
			<rect x="855.666" y="1181.172" clip-path="url(#SVGID_10_)" fill="#BDBDBD" width="63.438" height="63.438"/>
		</g>
	</g>
	<g>
		<g>
			<defs>
				<path id="SVGID_11_" d="M864.228,1272.116v-30.97c0-4.093,1.756-7.776,4.555-10.336c1.784,1.851,3.841,3.437,6.107,4.691
					c-3.24,2.564-5.318,6.531-5.318,10.983v26.97h35.625v-26.97c0-4.452-2.079-8.418-5.318-10.982
					c2.267-1.255,4.325-2.841,6.109-4.693c2.798,2.559,4.553,6.241,4.553,10.338v30.97c-7.076,3.15-14.912,4.9-23.156,4.9
					C879.14,1277.016,871.304,1275.265,864.228,1272.116z"/>
			</defs>
			<clipPath id="SVGID_12_">
				<use xlink:href="#SVGID_11_"  overflow="visible"/>
			</clipPath>
			<rect x="859.228" y="1225.808" clip-path="url(#SVGID_12_)" fill="#BDBDBD" width="56.312" height="56.208"/>
		</g>
	</g>
	<g>
		<g>
			<defs>
				<path id="SVGID_13_" d="M895.4,1216.453c2.459,0,4.453-1.994,4.453-4.453s-1.994-4.453-4.453-4.453
					c-2.459,0-4.453,1.994-4.453,4.453S892.941,1216.453,895.4,1216.453z M879.547,1216.453c2.459,0,4.453-1.994,4.453-4.453
					s-1.994-4.453-4.453-4.453s-4.453,1.994-4.453,4.453S877.087,1216.453,879.547,1216.453z"/>
			</defs>
			<clipPath id="SVGID_14_">
				<use xlink:href="#SVGID_13_"  overflow="visible"/>
			</clipPath>
			<rect x="870.094" y="1202.547" clip-path="url(#SVGID_14_)" fill="#E91E63" width="34.759" height="18.906"/>
		</g>
	</g>
	<g>
		<g>
			<defs>
				<path id="SVGID_15_" d="M1148.4,1271.672c28.529,0,51.656-23.127,51.656-51.656s-23.127-51.656-51.656-51.656
					s-51.656,23.127-51.656,51.656S1119.871,1271.672,1148.4,1271.672z M1148.4,1277.016c31.48,0,57-25.52,57-57s-25.52-57-57-57
					s-57,25.52-57,57S1116.92,1277.016,1148.4,1277.016z"/>
			</defs>
			<clipPath id="SVGID_16_">
				<use xlink:href="#SVGID_15_"  overflow="visible"/>
			</clipPath>
			<rect x="1086.4" y="1158.016" clip-path="url(#SVGID_16_)" fill="#BDBDBD" width="124" height="124"/>
		</g>
	</g>
	<g>
		<g>
			<defs>
				<path id="SVGID_17_" d="M1129.799,1230.809c-2.799,2.561-4.555,6.244-4.555,10.336v25.058c-16.902-8.49-28.5-25.984-28.5-46.188
					c0-28.529,23.127-51.656,51.656-51.656s51.656,23.127,51.656,51.656c0,20.203-11.598,37.698-28.5,46.188v-25.058
					c0-4.097-1.755-7.779-4.553-10.338c4.474-4.644,7.225-10.959,7.225-17.917c0-14.265-11.564-25.828-25.828-25.828
					c-14.265,0-25.828,11.564-25.828,25.828C1122.572,1219.849,1125.324,1226.165,1129.799,1230.809z"/>
			</defs>
			<clipPath id="SVGID_18_">
				<use xlink:href="#SVGID_17_"  overflow="visible"/>
			</clipPath>
			<rect x="1091.744" y="1163.359" clip-path="url(#SVGID_18_)" fill="#E91E63" width="113.312" height="107.844"/>
		</g>
	</g>
	<g>
		<g>
			<defs>
				<path id="SVGID_19_" d="M1148.4,1234.266c11.805,0,21.375-9.57,21.375-21.375s-9.57-21.375-21.375-21.375
					s-21.375,9.57-21.375,21.375S1136.595,1234.266,1148.4,1234.266z M1148.4,1239.609c14.756,0,26.719-11.962,26.719-26.719
					s-11.962-26.719-26.719-26.719s-26.719,11.962-26.719,26.719S1133.644,1239.609,1148.4,1239.609z"/>
			</defs>
			<clipPath id="SVGID_20_">
				<use xlink:href="#SVGID_19_"  overflow="visible"/>
			</clipPath>
			<rect x="1116.681" y="1181.172" clip-path="url(#SVGID_20_)" fill="#BDBDBD" width="63.438" height="63.438"/>
		</g>
	</g>
	<g>
		<g>
			<defs>
				<path id="SVGID_21_" d="M1125.244,1272.116v-30.97c0-4.093,1.756-7.776,4.555-10.336c1.784,1.851,3.841,3.437,6.107,4.691
					c-3.24,2.564-5.318,6.531-5.318,10.983v26.97h35.625v-26.97c0-4.452-2.078-8.418-5.318-10.982
					c2.267-1.255,4.325-2.841,6.109-4.693c2.798,2.559,4.553,6.241,4.553,10.338v30.97c-7.076,3.15-14.911,4.9-23.156,4.9
					S1132.319,1275.265,1125.244,1272.116z"/>
			</defs>
			<clipPath id="SVGID_22_">
				<use xlink:href="#SVGID_21_"  overflow="visible"/>
			</clipPath>
			<rect x="1120.244" y="1225.808" clip-path="url(#SVGID_22_)" fill="#BDBDBD" width="56.312" height="56.208"/>
		</g>
	</g>
	<g>
		<g>
			<defs>
				<path id="SVGID_23_" d="M1154.422,1214.453c2.097,0,3.797-1.7,3.797-3.797s-1.7-3.797-3.797-3.797
					c-2.097,0-3.797,1.7-3.797,3.797S1152.325,1214.453,1154.422,1214.453z M1140.906,1214.453c2.097,0,3.797-1.7,3.797-3.797
					s-1.7-3.797-3.797-3.797s-3.797,1.7-3.797,3.797S1138.809,1214.453,1140.906,1214.453z"/>
			</defs>
			<clipPath id="SVGID_24_">
				<use xlink:href="#SVGID_23_"  overflow="visible"/>
			</clipPath>
			<rect x="1132.847" y="1202.597" clip-path="url(#SVGID_24_)" fill="#E91E63" width="29.635" height="16.119"/>
		</g>
	</g>
	
		<path fill="none" stroke="#E91E63" stroke-width="3.1866" stroke-linecap="round" stroke-linejoin="round" stroke-miterlimit="10" d="
		M1154.643,1222.532c-1.249,2.278-3.67,3.822-6.451,3.822c-2.903,0-5.413-1.682-6.608-4.125"/>
	<g>
		<g>
			<defs>
				<path id="SVGID_25_" d="M1314.4,1271.672c28.529,0,51.656-23.127,51.656-51.656s-23.127-51.656-51.656-51.656
					s-51.656,23.127-51.656,51.656S1285.871,1271.672,1314.4,1271.672z M1314.4,1277.016c31.48,0,57-25.52,57-57s-25.52-57-57-57
					s-57,25.52-57,57S1282.92,1277.016,1314.4,1277.016z"/>
			</defs>
			<clipPath id="SVGID_26_">
				<use xlink:href="#SVGID_25_"  overflow="visible"/>
			</clipPath>
			<rect x="1252.4" y="1158.016" clip-path="url(#SVGID_26_)" fill="#BDBDBD" width="124" height="124"/>
		</g>
	</g>
	<g>
		<g>
			<defs>
				<path id="SVGID_27_" d="M1295.799,1230.809c-2.799,2.561-4.555,6.244-4.555,10.336v25.058c-16.902-8.49-28.5-25.984-28.5-46.188
					c0-28.529,23.127-51.656,51.656-51.656s51.656,23.127,51.656,51.656c0,20.203-11.598,37.698-28.5,46.188v-25.058
					c0-4.097-1.755-7.779-4.553-10.338c4.474-4.644,7.225-10.959,7.225-17.917c0-14.265-11.564-25.828-25.828-25.828
					c-14.265,0-25.828,11.564-25.828,25.828C1288.572,1219.849,1291.324,1226.165,1295.799,1230.809z"/>
			</defs>
			<clipPath id="SVGID_28_">
				<use xlink:href="#SVGID_27_"  overflow="visible"/>
			</clipPath>
			<rect x="1257.744" y="1163.359" clip-path="url(#SVGID_28_)" fill="#9575CD" width="113.312" height="107.844"/>
		</g>
	</g>
	<g>
		<g>
			<defs>
				<path id="SVGID_29_" d="M1314.4,1234.266c11.805,0,21.375-9.57,21.375-21.375s-9.57-21.375-21.375-21.375
					s-21.375,9.57-21.375,21.375S1302.595,1234.266,1314.4,1234.266z M1314.4,1239.609c14.756,0,26.719-11.962,26.719-26.719
					s-11.962-26.719-26.719-26.719s-26.719,11.962-26.719,26.719S1299.644,1239.609,1314.4,1239.609z"/>
			</defs>
			<clipPath id="SVGID_30_">
				<use xlink:href="#SVGID_29_"  overflow="visible"/>
			</clipPath>
			<rect x="1282.681" y="1181.172" clip-path="url(#SVGID_30_)" fill="#BDBDBD" width="63.438" height="63.438"/>
		</g>
	</g>
	<g>
		<g>
			<defs>
				<path id="SVGID_31_" d="M1291.244,1272.116v-30.97c0-4.093,1.756-7.776,4.555-10.336c1.784,1.851,3.841,3.437,6.107,4.691
					c-3.24,2.564-5.318,6.531-5.318,10.983v26.97h35.625v-26.97c0-4.452-2.078-8.418-5.318-10.982
					c2.267-1.255,4.325-2.841,6.109-4.693c2.798,2.559,4.553,6.241,4.553,10.338v30.97c-7.076,3.15-14.911,4.9-23.156,4.9
					S1298.319,1275.265,1291.244,1272.116z"/>
			</defs>
			<clipPath id="SVGID_32_">
				<use xlink:href="#SVGID_31_"  overflow="visible"/>
			</clipPath>
			<rect x="1286.244" y="1225.808" clip-path="url(#SVGID_32_)" fill="#BDBDBD" width="56.312" height="56.208"/>
		</g>
	</g>
	<g>
		<g>
			<defs>
				<path id="SVGID_33_" d="M1320.422,1214.453c2.097,0,3.797-1.7,3.797-3.797s-1.7-3.797-3.797-3.797
					c-2.097,0-3.797,1.7-3.797,3.797S1318.325,1214.453,1320.422,1214.453z M1306.906,1214.453c2.097,0,3.797-1.7,3.797-3.797
					s-1.7-3.797-3.797-3.797s-3.797,1.7-3.797,3.797S1304.809,1214.453,1306.906,1214.453z"/>
			</defs>
			<use xlink:href="#SVGID_33_"  overflow="visible" fill-rule="evenodd" clip-rule="evenodd" fill="#9575CD"/>
			<clipPath id="SVGID_34_">
				<use xlink:href="#SVGID_33_"  overflow="visible"/>
			</clipPath>
			<rect x="1298.846" y="1202.597" clip-path="url(#SVGID_34_)" fill="#9575CD" width="29.635" height="16.119"/>
		</g>
	</g>
	
		<path fill="none" stroke="#9575CD" stroke-width="3.1866" stroke-linecap="round" stroke-linejoin="round" stroke-miterlimit="10" d="
		M1307.583,1225.052c1.249-2.278,3.67-3.823,6.451-3.823c2.903,0,5.413,1.682,6.608,4.125"/>
	<g>
		<text transform="matrix(1 0 0 1 1776.2339 1397.2141)"><tspan x="0" y="0" fill="#26C6DA" font-family="'AdventPro-Regular'" font-size="46.2454">mood</tspan><tspan x="100.952" y="0" fill="#757575" font-family="'AdventPro-Regular'" font-size="46.2454">maps</tspan></text>
	</g>
	<g>
		<text transform="matrix(1 0 0 1 1776.2339 1208.1952)"><tspan x="0" y="0" fill="#26C6DA" font-family="'AdventPro-Regular'" font-size="46.2454">mood</tspan><tspan x="100.952" y="0" fill="#757575" font-family="'AdventPro-Regular'" font-size="46.2454">maps</tspan></text>
	</g>
	<g>
		<text transform="matrix(1 0 0 1 837.8907 50.1894)"><tspan x="0" y="0" fill="#26C6DA" font-family="'AdventPro-Regular'" font-size="46.2454">mood</tspan><tspan x="100.952" y="0" fill="#757575" font-family="'AdventPro-Regular'" font-size="46.2454">maps</tspan></text>
	</g>
	<g>
		
			<polygon fill-rule="evenodd" clip-rule="evenodd" fill="#757575" stroke="#757575" stroke-width="0.7788" stroke-linecap="round" stroke-linejoin="round" stroke-miterlimit="10" points="
			1751.176,1372.146 1771.276,1412.303 1762.228,1368.974 		"/>
		<g>
			<g>
				<defs>
					<path id="SVGID_35_" d="M1759.24,1356.419l0.256-0.087c1.112-0.38,1.715-1.603,1.331-2.726
						c-0.387-1.131-1.602-1.723-2.722-1.34l-13.171,4.503c-1.113,0.38-1.716,1.603-1.331,2.726c0.386,1.13,1.603,1.723,2.722,1.34
						l0.255-0.087l0.668,10.369l-1.642,0.561c-1.127,0.386-1.728,1.607-1.343,2.73c0.387,1.131,1.608,1.721,2.734,1.336
						l21.096-7.212c1.128-0.385,1.728-1.607,1.344-2.73c-0.387-1.131-1.608-1.721-2.734-1.336l-1.641,0.561L1759.24,1356.419z"/>
				</defs>
				<clipPath id="SVGID_36_">
					<use xlink:href="#SVGID_35_"  overflow="visible"/>
				</clipPath>
				
					<rect x="1736.796" y="1349.582" transform="matrix(-0.9462 0.3235 -0.3235 -0.9462 3855.7559 2085.7561)" clip-path="url(#SVGID_36_)" fill="#26C6DA" stroke="#26C6DA" stroke-width="1.3218" stroke-miterlimit="10" width="35.471" height="27.49"/>
				
					<use xlink:href="#SVGID_35_"  overflow="visible" fill-rule="evenodd" clip-rule="evenodd" fill="none" stroke="#26C6DA" stroke-width="0.8868" stroke-miterlimit="10"/>
			</g>
		</g>
	</g>
</g>
<g id="Layer_2">
	<circle fill="#FFFFFF" cx="1686.076" cy="-713.402" r="45.541"/>
	<circle fill="#FFFFFF" cx="1686.076" cy="-559.675" r="45.541"/>
	<text transform="matrix(1 0 0 1 1659.2849 -646.7302)" fill="#757575" font-family="'Roboto-Light'" font-size="18.8194">Happy</text>
	<text transform="matrix(1 0 0 1 1674.2755 -213.2519)" fill="#757575" font-family="'Roboto-Light'" font-size="18.8194">Add Photo</text>
	<text transform="matrix(1 0 0 1 1716.7435 -787.7229)" fill="#757575" font-family="'Roboto-Light'" font-size="24">Select your mood</text>
	<text transform="matrix(1 0 0 1 1661.7205 -479.3929)" fill="#757575" font-family="'Roboto-Light'" font-size="18.8194">Bored</text>
	<circle fill="#FFFFFF" cx="1812.86" cy="-713.402" r="45.541"/>
	<circle fill="#FFFFFF" cx="1812.86" cy="-559.675" r="45.541"/>
	<text transform="matrix(1 0 0 1 1796.9076 -646.7302)" fill="#757575" font-family="'Roboto-Light'" font-size="18.8194">Sad</text>
	<text transform="matrix(1 0 0 1 1789.3583 -479.3929)" fill="#757575" font-family="'Roboto-Light'" font-size="18.8194">Crazy</text>
	<circle fill="#FFFFFF" cx="1939.644" cy="-713.402" r="45.541"/>
	<circle fill="#FFFFFF" cx="1939.644" cy="-559.675" r="45.541"/>
	<text transform="matrix(1 0 0 1 1915.48 -646.7302)" fill="#757575" font-family="'Roboto-Light'" font-size="18.8194">Angry</text>
	<text transform="matrix(1 0 0 1 1906.5215 -479.3929)" fill="#757575" font-family="'Roboto-Light'" font-size="18.8194">Anxious</text>
	<text transform="matrix(1 0 0 1 1590.8015 201.7746)" fill="#FFFFFF" font-family="'Roboto-Light'" font-size="30">Enter your location</text>
	<text transform="matrix(1 0 0 1 1602.6615 446.9447)" fill="#757575" font-family="'Roboto-Light'" font-size="30">Select your mood</text>
	<text transform="matrix(1 0 0 1 1519.6472 634.6654)" fill="#757575" font-family="'Roboto-Light'" font-size="18.8194">Happy</text>
	<text transform="matrix(1 0 0 1 1522.0828 793.0027)" fill="#757575" font-family="'Roboto-Light'" font-size="18.8194">Bored</text>
	<text transform="matrix(1 0 0 1 1697.1105 634.6654)" fill="#757575" font-family="'Roboto-Light'" font-size="18.8194">Sad</text>
	<text transform="matrix(1 0 0 1 1689.5607 793.0027)" fill="#757575" font-family="'Roboto-Light'" font-size="18.8194">Crazy</text>
	<text transform="matrix(1 0 0 1 1857.291 634.6654)" fill="#757575" font-family="'Roboto-Light'" font-size="18.8194">Angry</text>
	<rect x="1473.303" y="241.86" fill="#FFFFFF" width="482.833" height="53.648"/>
	<g>
		
			<circle fill="none" stroke="#BDBDBD" stroke-width="3.4985" stroke-linecap="round" stroke-linejoin="round" stroke-miterlimit="10" cx="1918.564" cy="266.253" r="9.971"/>
		
			<line fill="none" stroke="#BDBDBD" stroke-width="3.4985" stroke-linecap="round" stroke-linejoin="round" stroke-miterlimit="10" x1="1925.717" y1="273.721" x2="1935.774" y2="282.045"/>
	</g>
	<g>
		
			<circle fill="none" stroke="#E91E63" stroke-width="6.9991" stroke-linecap="round" stroke-linejoin="round" stroke-miterlimit="10" cx="1546.439" cy="562.463" r="45.541"/>
		<g>
			
				<path fill="none" stroke="#E91E63" stroke-width="6.9991" stroke-linecap="round" stroke-linejoin="round" stroke-miterlimit="10" d="
				M1561.58,572.533c-2.744,5.003-8.061,8.396-14.17,8.396c-6.376,0-11.889-3.695-14.514-9.06"/>
			<circle fill="#E91E63" cx="1534.134" cy="550.377" r="6.38"/>
			<circle fill="#E91E63" cx="1558.744" cy="550.377" r="6.38"/>
		</g>
	</g>
	<g>
		<g>
			<path fill="#26C6DA" d="M1746.065,1210.115c-20.04-18.05-18.992-30.079-18.992-30.079c0-10.539,8.543-19.082,19.082-19.082
				c10.539,0,19.082,8.543,19.082,19.082c0,0,0.583,13.45-18.462,29.511L1746.065,1210.115z"/>
			<circle fill="#FFFFFF" cx="1746.156" cy="1180.036" r="12.213"/>
		</g>
		
			<path fill="none" stroke="#757575" stroke-width="2.1129" stroke-linecap="round" stroke-linejoin="round" stroke-miterlimit="10" d="
			M1750.152,1183.561c-0.828,1.51-2.433,2.535-4.278,2.535c-1.925,0-3.589-1.115-4.382-2.735"/>
		<g>
			<circle fill="#757575" cx="1742.146" cy="1177.329" r="1.906"/>
			<circle fill="#757575" cx="1749.499" cy="1177.329" r="1.906"/>
		</g>
	</g>
	<g>
		<g>
			<path fill="#26C6DA" d="M811.861,52.109c-26.89-24.22-25.483-40.361-25.483-40.361c0-14.141,11.464-25.605,25.605-25.605
				s25.605,11.464,25.605,25.605c0,0,0.783,18.048-24.773,39.598L811.861,52.109z"/>
			<circle fill="#FFFFFF" cx="811.983" cy="11.748" r="16.387"/>
		</g>
		
			<path fill="none" stroke="#757575" stroke-width="2.8352" stroke-linecap="round" stroke-linejoin="round" stroke-miterlimit="10" d="
			M817.346,16.478c-1.111,2.027-3.265,3.401-5.74,3.401c-2.583,0-4.816-1.497-5.879-3.67"/>
		<g>
			<circle fill="#757575" cx="806.603" cy="8.116" r="2.558"/>
			<circle fill="#757575" cx="816.469" cy="8.116" r="2.558"/>
		</g>
	</g>
	<g>
		
			<circle fill="none" stroke="#0097A7" stroke-width="6.9991" stroke-linecap="round" stroke-linejoin="round" stroke-miterlimit="10" cx="1713.062" cy="562.463" r="45.541"/>
		<g>
			
				<path fill="none" stroke="#0097A7" stroke-width="6.9991" stroke-linecap="round" stroke-linejoin="round" stroke-miterlimit="10" d="
				M1728.203,572.533c-2.744,5.003-8.061,8.396-14.17,8.396c-6.376,0-11.889-3.695-14.514-9.06"/>
			<circle fill="#0097A7" cx="1700.757" cy="550.377" r="6.38"/>
			<circle fill="#0097A7" cx="1725.368" cy="550.377" r="6.38"/>
		</g>
	</g>
	<g>
		
			<circle fill="none" stroke="#FFAB00" stroke-width="6.9991" stroke-linecap="round" stroke-linejoin="round" stroke-miterlimit="10" cx="1881.454" cy="562.463" r="45.541"/>
		<g>
			
				<path fill="none" stroke="#FFAB00" stroke-width="6.9991" stroke-linecap="round" stroke-linejoin="round" stroke-miterlimit="10" d="
				M1896.595,572.533c-2.744,5.003-8.061,8.396-14.17,8.396c-6.376,0-11.889-3.695-14.514-9.06"/>
			<circle fill="#FFAB00" cx="1869.149" cy="550.377" r="6.38"/>
			<circle fill="#FFAB00" cx="1893.759" cy="550.377" r="6.38"/>
		</g>
	</g>
	<text transform="matrix(1 0 0 1 1852.4531 793.0032)" fill="#757575" font-family="'Roboto-Light'" font-size="18.8194">Fearful</text>
	<g>
		
			<circle fill="none" stroke="#8BC34A" stroke-width="6.9991" stroke-linecap="round" stroke-linejoin="round" stroke-miterlimit="10" cx="1881.454" cy="716.724" r="45.541"/>
		<g>
			
				<path fill="none" stroke="#8BC34A" stroke-width="6.9991" stroke-linecap="round" stroke-linejoin="round" stroke-miterlimit="10" d="
				M1896.595,726.794c-2.744,5.003-8.061,8.396-14.17,8.396c-6.376,0-11.889-3.695-14.514-9.06"/>
			<circle fill="#8BC34A" cx="1869.149" cy="704.638" r="6.38"/>
			<circle fill="#8BC34A" cx="1893.759" cy="704.638" r="6.38"/>
		</g>
	</g>
	<g>
		
			<circle fill="none" stroke="#1E88E5" stroke-width="6.9991" stroke-linecap="round" stroke-linejoin="round" stroke-miterlimit="10" cx="1546.439" cy="716.724" r="45.541"/>
		<g>
			
				<path fill="none" stroke="#1E88E5" stroke-width="6.9991" stroke-linecap="round" stroke-linejoin="round" stroke-miterlimit="10" d="
				M1561.58,726.794c-2.744,5.003-8.061,8.396-14.17,8.396c-6.376,0-11.889-3.695-14.514-9.06"/>
			<circle fill="#1E88E5" cx="1534.134" cy="704.638" r="6.38"/>
			<circle fill="#1E88E5" cx="1558.744" cy="704.638" r="6.38"/>
		</g>
	</g>
	<g>
		
			<circle fill="none" stroke="#AB47BC" stroke-width="6.9991" stroke-linecap="round" stroke-linejoin="round" stroke-miterlimit="10" cx="1713.062" cy="716.724" r="45.541"/>
		<g>
			
				<path fill="none" stroke="#AB47BC" stroke-width="6.9991" stroke-linecap="round" stroke-linejoin="round" stroke-miterlimit="10" d="
				M1728.203,726.794c-2.744,5.003-8.061,8.396-14.17,8.396c-6.376,0-11.889-3.695-14.514-9.06"/>
			<circle fill="#AB47BC" cx="1700.757" cy="704.638" r="6.38"/>
			<circle fill="#AB47BC" cx="1725.368" cy="704.638" r="6.38"/>
		</g>
	</g>
	<g>
		<g>
			<path fill="#26C6DA" d="M70.44,42.727c2.62-1.479,5.102-2.22,7.445-2.22c2.22,0,3.977,0.71,5.272,2.128s1.942,3.222,1.942,5.41
				v16.001h-2.543V48.184c0-1.388-0.293-2.513-0.879-3.376c-0.586-0.862-1.295-1.402-2.127-1.618
				c-0.833-0.216-1.503-0.324-2.012-0.324c-0.509,0-1.08,0.023-1.711,0.069c-0.632,0.047-1.473,0.271-2.52,0.671l-1.711,0.832
				c0.524,1.049,0.786,2.251,0.786,3.607v16.001h-2.543V48.184c0-1.603-0.386-2.852-1.156-3.746
				c-0.925-1.048-2.335-1.572-4.231-1.572c-1.896,0-3.769,0.509-5.619,1.526v19.654h-2.59V40.877h2.59l-0.231,1.479
				c2.127-1.202,4.277-1.803,6.451-1.803C67.226,40.554,69.021,41.279,70.44,42.727z"/>
			<path fill="#26C6DA" d="M107.481,49.433v6.104c0,2.59-0.709,4.732-2.127,6.428c-1.418,1.696-3.561,2.544-6.428,2.544
				s-5.034-0.856-6.498-2.567c-1.464-1.711-2.197-3.846-2.197-6.404v-6.104c0-2.929,0.748-5.172,2.243-6.729
				c1.495-1.557,3.614-2.336,6.359-2.336c2.744,0,4.871,0.81,6.382,2.428C106.726,44.415,107.481,46.627,107.481,49.433z
				 M104.892,55.999v-6.566c0-4.47-1.989-6.706-5.966-6.706c-4.07,0-6.104,2.236-6.104,6.706v6.566c0,1.85,0.547,3.346,1.642,4.486
				c1.094,1.141,2.59,1.711,4.486,1.711s3.36-0.562,4.394-1.688C104.375,59.383,104.892,57.88,104.892,55.999z"/>
			<path fill="#26C6DA" d="M129.864,49.433v6.104c0,2.59-0.709,4.732-2.127,6.428c-1.418,1.696-3.561,2.544-6.428,2.544
				s-5.034-0.856-6.498-2.567c-1.464-1.711-2.197-3.846-2.197-6.404v-6.104c0-2.929,0.748-5.172,2.243-6.729
				c1.495-1.557,3.614-2.336,6.359-2.336c2.744,0,4.871,0.81,6.382,2.428C129.108,44.415,129.864,46.627,129.864,49.433z
				 M127.274,55.999v-6.566c0-4.47-1.989-6.706-5.966-6.706c-4.07,0-6.104,2.236-6.104,6.706v6.566c0,1.85,0.547,3.346,1.642,4.486
				c1.094,1.141,2.59,1.711,4.486,1.711s3.36-0.562,4.394-1.688C126.758,59.383,127.274,57.88,127.274,55.999z"/>
			<path fill="#26C6DA" d="M143.367,40.507c2.559,0,4.593,0.54,6.104,1.619V31.674h2.59v32.372c-2.652,0.37-5.103,0.555-7.353,0.555
				c-2.251,0-4.286-0.462-6.104-1.387c-2.405-1.233-3.607-3.376-3.607-6.429v-8.74c0-3.237,1.31-5.457,3.931-6.659
				C140.191,40.801,141.671,40.507,143.367,40.507z M149.472,44.392c-1.881-1.048-3.931-1.572-6.151-1.572
				c-1.942,0-3.392,0.493-4.347,1.479c-0.956,0.987-1.434,2.282-1.434,3.885v8.648c0,3.606,2.42,5.41,7.261,5.41
				c1.387,0,2.944-0.139,4.671-0.416V44.392z"/>
			<path fill="#757575" d="M171.392,42.727c2.62-1.479,5.102-2.22,7.445-2.22c2.22,0,3.977,0.71,5.272,2.128s1.942,3.222,1.942,5.41
				v16.001h-2.543V48.184c0-1.388-0.293-2.513-0.879-3.376c-0.586-0.862-1.295-1.402-2.127-1.618
				c-0.833-0.216-1.503-0.324-2.012-0.324c-0.509,0-1.08,0.023-1.711,0.069c-0.632,0.047-1.473,0.271-2.52,0.671l-1.711,0.832
				c0.524,1.049,0.786,2.251,0.786,3.607v16.001h-2.543V48.184c0-1.603-0.386-2.852-1.156-3.746
				c-0.925-1.048-2.335-1.572-4.231-1.572c-1.896,0-3.769,0.509-5.619,1.526v19.654h-2.59V40.877h2.59l-0.231,1.479
				c2.127-1.202,4.277-1.803,6.451-1.803C168.178,40.554,169.974,41.279,171.392,42.727z"/>
			<path fill="#757575" d="M199.416,64.509c-6.752,0-10.128-2.759-10.128-8.278v-3.839c0-3.052,1.064-5.102,3.191-6.15
				c1.11-0.523,2.204-0.786,3.284-0.786c3.637,0,6.551,0.863,8.74,2.59c0-1.695-0.494-3.044-1.48-4.046
				c-0.987-1.002-2.883-1.504-5.688-1.504l0.139-1.988c2.497,0,4.347,0.294,5.549,0.879c0.647,0.34,1.218,0.679,1.711,1.018
				c0.493,0.34,0.878,0.786,1.156,1.341c0.278,0.555,0.509,1.041,0.694,1.457s0.308,0.979,0.37,1.688
				c0.092,1.08,0.139,2.205,0.139,3.376v13.781C203.886,64.354,201.327,64.509,199.416,64.509z M204.503,61.919V50.034
				c-2.56-1.232-5.18-1.957-7.862-2.173c-0.185-0.03-0.37-0.047-0.555-0.047c-1.172,0-2.174,0.363-3.006,1.087
				c-0.833,0.725-1.249,1.936-1.249,3.631v4.022c0,2.56,1.11,4.225,3.33,4.995c1.294,0.462,2.759,0.693,4.393,0.693
				C201.188,62.243,202.838,62.135,204.503,61.919z"/>
			<path fill="#757575" d="M212.734,72.741l-2.59,1.018V40.877h2.59l-0.231,2.358c1.695-1.818,3.884-2.729,6.567-2.729
				c2.682,0,4.771,0.833,6.266,2.497c1.495,1.665,2.243,3.823,2.243,6.475v6.428c0,2.807-0.786,4.957-2.358,6.452
				s-3.692,2.242-6.359,2.242c-2.667,0-4.709-0.832-6.127-2.497V72.741z M224.989,56.37v-7.075c0-2.25-0.594-3.885-1.78-4.902
				c-1.187-1.018-2.605-1.526-4.254-1.526c-1.65,0-3.075,0.502-4.278,1.503c-1.202,1.003-1.85,2.567-1.942,4.694v7.307
				c0,2.005,0.57,3.484,1.711,4.439c1.141,0.956,2.605,1.434,4.394,1.434c1.788,0,3.26-0.501,4.417-1.503
				C224.412,59.739,224.989,58.282,224.989,56.37z"/>
			<path fill="#757575" d="M230.77,58.173h2.451c0.185,1.388,0.879,2.428,2.081,3.121c1.203,0.694,2.521,1.041,3.954,1.041
				s2.721-0.315,3.861-0.948c1.14-0.632,1.711-1.588,1.711-2.867s-0.439-2.273-1.318-2.982c-0.878-0.709-1.95-1.264-3.214-1.665
				c-1.265-0.4-2.543-0.824-3.838-1.271s-2.436-1.117-3.422-2.012c-1.172-1.048-1.757-2.351-1.757-3.908
				c0-1.557,0.625-3.006,1.873-4.347c1.249-1.342,3.275-2.012,6.082-2.012c0.986,0,1.911,0.115,2.774,0.347
				c0.863,0.231,1.48,0.455,1.85,0.671l0.555,0.323l-0.878,2.127c-1.11-0.801-2.498-1.202-4.162-1.202c-1.665,0-2.999,0.354-4,1.063
				c-1.002,0.71-1.503,1.665-1.503,2.867c0,1.173,0.509,2.089,1.526,2.752c1.017,0.663,2.181,1.188,3.491,1.572
				c1.31,0.386,2.613,0.825,3.908,1.318s2.389,1.248,3.284,2.266c0.894,1.018,1.341,2.375,1.341,4.069
				c0,1.696-0.687,3.161-2.058,4.394c-1.373,1.232-3.376,1.85-6.012,1.85c-2.636,0-4.709-0.632-6.22-1.896
				C231.617,61.581,230.831,60.023,230.77,58.173z"/>
		</g>
	</g>
	<g>
		<g>
			<path fill="#26C6DA" d="M25.496,65.966C-1.394,41.745,0.013,25.605,0.013,25.605C0.013,11.464,11.476,0,25.617,0
				s25.605,11.464,25.605,25.605c0,0,0.783,18.048-24.773,39.598L25.496,65.966z"/>
			<circle fill="#FFFFFF" cx="25.617" cy="25.605" r="16.387"/>
		</g>
		
			<path fill="none" stroke="#757575" stroke-width="2.8352" stroke-linecap="round" stroke-linejoin="round" stroke-miterlimit="10" d="
			M30.98,30.335c-1.111,2.027-3.265,3.401-5.74,3.401c-2.583,0-4.816-1.497-5.879-3.67"/>
		<g>
			<circle fill="#757575" cx="20.238" cy="21.972" r="2.558"/>
			<circle fill="#757575" cx="30.103" cy="21.972" r="2.558"/>
		</g>
	</g>
</g>
</svg>
